<svg xmlns="http://www.w3.org/2000/svg" width="16.068" height="16.001" viewBox="0 0 16.068 16.001">
  <g id="call-doctor" transform="translate(0.508 0.5)">
    <path id="Path_1087" data-name="Path 1087" d="M12.58,13.863,11.41,15.324A12.341,12.341,0,0,1,7.025,10.94L8.487,9.77a.994.994,0,0,0,.287-1.179l-1.332-3a.994.994,0,0,0-1.158-.559L3.747,5.69a1,1,0,0,0-.737,1.1A14.739,14.739,0,0,0,15.555,19.341a1,1,0,0,0,1.1-.737l.658-2.537a1,1,0,0,0-.558-1.158l-3-1.333a.993.993,0,0,0-1.179.287Z" transform="translate(-3 -4.357)" fill="none" stroke="#fff" stroke-linecap="square" stroke-miterlimit="10" stroke-width="1"/>
    <path id="Path_1088" data-name="Path 1088" d="M40.857,3A3.85,3.85,0,0,0,37.37,8.5L37,10.713l2.218-.37A3.857,3.857,0,1,0,40.857,3Z" transform="translate(-29.722 -3)" fill="none" stroke="#fff" stroke-linecap="square" stroke-miterlimit="10" stroke-width="1"/>
  </g>
</svg>
